<svg width="38" height="38" viewBox="0 0 38 38" fill="none" xmlns="http://www.w3.org/2000/svg">
<g filter="url(#filter0_dd_1083_50505)">
<path d="M3.25 14.8C3.25 12.5557 3.25019 10.8874 3.35816 9.56597C3.46589 8.24742 3.67968 7.2961 4.0947 6.48157C4.83772 5.02332 6.02332 3.83772 7.48157 3.0947C8.2961 2.67968 9.24742 2.46589 10.566 2.35816C11.8874 2.25019 13.5557 2.25 15.8 2.25H22.2C24.4443 2.25 26.1126 2.25019 27.434 2.35816C28.7526 2.46589 29.7039 2.67968 30.5184 3.0947C31.9767 3.83772 33.1623 5.02332 33.9053 6.48157C34.3203 7.2961 34.5341 8.24742 34.6418 9.56597C34.7498 10.8874 34.75 12.5557 34.75 14.8V21.2C34.75 23.4443 34.7498 25.1126 34.6418 26.434C34.5341 27.7526 34.3203 28.7039 33.9053 29.5184C33.1623 30.9767 31.9767 32.1623 30.5184 32.9053C29.7039 33.3203 28.7526 33.5341 27.434 33.6418C26.1126 33.7498 24.4443 33.75 22.2 33.75H15.8C13.5557 33.75 11.8874 33.7498 10.566 33.6418C9.24742 33.5341 8.2961 33.3203 7.48157 32.9053C6.02332 32.1623 4.83772 30.9767 4.0947 29.5184C3.67968 28.7039 3.46589 27.7526 3.35816 26.434C3.25019 25.1126 3.25 23.4443 3.25 21.2V14.8Z" fill="url(#paint0_linear_1083_50505)"/>
<path d="M3.25 14.8C3.25 12.5557 3.25019 10.8874 3.35816 9.56597C3.46589 8.24742 3.67968 7.2961 4.0947 6.48157C4.83772 5.02332 6.02332 3.83772 7.48157 3.0947C8.2961 2.67968 9.24742 2.46589 10.566 2.35816C11.8874 2.25019 13.5557 2.25 15.8 2.25H22.2C24.4443 2.25 26.1126 2.25019 27.434 2.35816C28.7526 2.46589 29.7039 2.67968 30.5184 3.0947C31.9767 3.83772 33.1623 5.02332 33.9053 6.48157C34.3203 7.2961 34.5341 8.24742 34.6418 9.56597C34.7498 10.8874 34.75 12.5557 34.75 14.8V21.2C34.75 23.4443 34.7498 25.1126 34.6418 26.434C34.5341 27.7526 34.3203 28.7039 33.9053 29.5184C33.1623 30.9767 31.9767 32.1623 30.5184 32.9053C29.7039 33.3203 28.7526 33.5341 27.434 33.6418C26.1126 33.7498 24.4443 33.75 22.2 33.75H15.8C13.5557 33.75 11.8874 33.7498 10.566 33.6418C9.24742 33.5341 8.2961 33.3203 7.48157 32.9053C6.02332 32.1623 4.83772 30.9767 4.0947 29.5184C3.67968 28.7039 3.46589 27.7526 3.35816 26.434C3.25019 25.1126 3.25 23.4443 3.25 21.2V14.8Z" stroke="#49576D" stroke-width="0.5"/>
<rect opacity="0.3" x="7.30575" y="10.5591" width="1.60991" height="1.60991" rx="0.804955" fill="#C3E3F4"/>
<rect opacity="0.3" width="1.60991" height="1.60991" rx="0.804955" transform="matrix(-1 0 0 1 30.6943 10.5591)" fill="#C3E3F4"/>
<rect opacity="0.4" x="18.2218" y="26.2187" width="1.60991" height="1.60991" rx="0.804955" fill="#C3E3F4"/>
<rect opacity="0.5" x="11.595" y="10.1714" width="2.6161" height="2.6161" rx="1.30805" fill="#C3E3F4"/>
<rect opacity="0.5" x="23.3239" y="10.1714" width="2.6161" height="2.6161" rx="1.30805" fill="#C3E3F4"/>
<rect opacity="0.5" x="8.98684" y="13.8815" width="2.6161" height="2.6161" rx="1.30805" fill="#C3E3F4"/>
<rect opacity="0.5" width="2.6161" height="2.6161" rx="1.30805" transform="matrix(-1 0 0 1 29.0136 13.8815)" fill="#C3E3F4"/>
<rect opacity="0.7" x="14.3384" y="13.679" width="3.01858" height="3.01858" rx="1.50929" fill="#C3E3F4"/>
<rect opacity="0.85" x="11.7298" y="17.7941" width="3.01858" height="3.01858" rx="1.50929" fill="#C3E3F4"/>
<rect opacity="0.85" width="3.01858" height="3.01858" rx="1.50929" transform="matrix(-1 0 0 1 26.2701 17.7941)" fill="#C3E3F4"/>
<rect opacity="0.8" x="14.8793" y="22.1114" width="2.81734" height="2.81734" rx="1.40867" fill="#C3E3F4"/>
<rect opacity="0.8" width="2.81734" height="2.81734" rx="1.40867" transform="matrix(-1 0 0 1 23.0892 22.1433)" fill="#C3E3F4"/>
<rect opacity="0.7" x="20.0942" y="13.679" width="3.01858" height="3.01858" rx="1.50929" fill="#C3E3F4"/>
<g opacity="0.3" filter="url(#filter1_f_1083_50505)">
<rect x="16.9467" y="17.4565" width="4.16023" height="4.16023" rx="2.08012" fill="#C3E3F4"/>
</g>
<rect x="16.9467" y="17.4565" width="4.16023" height="4.16023" rx="2.08012" fill="#C3E3F4"/>
</g>
<defs>
<filter id="filter0_dd_1083_50505" x="0" y="0" width="38" height="38" filterUnits="userSpaceOnUse" color-interpolation-filters="sRGB">
<feFlood flood-opacity="0" result="BackgroundImageFix"/>
<feColorMatrix in="SourceAlpha" type="matrix" values="0 0 0 0 0 0 0 0 0 0 0 0 0 0 0 0 0 0 127 0" result="hardAlpha"/>
<feOffset dy="1"/>
<feGaussianBlur stdDeviation="1"/>
<feColorMatrix type="matrix" values="0 0 0 0 0.0627451 0 0 0 0 0.0941176 0 0 0 0 0.156863 0 0 0 0.06 0"/>
<feBlend mode="normal" in2="BackgroundImageFix" result="effect1_dropShadow_1083_50505"/>
<feColorMatrix in="SourceAlpha" type="matrix" values="0 0 0 0 0 0 0 0 0 0 0 0 0 0 0 0 0 0 127 0" result="hardAlpha"/>
<feOffset dy="1"/>
<feGaussianBlur stdDeviation="1.5"/>
<feColorMatrix type="matrix" values="0 0 0 0 0.0627451 0 0 0 0 0.0941176 0 0 0 0 0.156863 0 0 0 0.1 0"/>
<feBlend mode="normal" in2="effect1_dropShadow_1083_50505" result="effect2_dropShadow_1083_50505"/>
<feBlend mode="normal" in="SourceGraphic" in2="effect2_dropShadow_1083_50505" result="shape"/>
</filter>
<filter id="filter1_f_1083_50505" x="14.6237" y="15.1334" width="8.80632" height="8.8063" filterUnits="userSpaceOnUse" color-interpolation-filters="sRGB">
<feFlood flood-opacity="0" result="BackgroundImageFix"/>
<feBlend mode="normal" in="SourceGraphic" in2="BackgroundImageFix" result="shape"/>
<feGaussianBlur stdDeviation="1.16152" result="effect1_foregroundBlur_1083_50505"/>
</filter>
<linearGradient id="paint0_linear_1083_50505" x1="2.9995" y1="33.9998" x2="34.9996" y2="1.99961" gradientUnits="userSpaceOnUse">
<stop stop-color="#101828"/>
<stop offset="1" stop-color="#475467"/>
</linearGradient>
</defs>
</svg>
