<?xml version="1.0" standalone="no"?>
<!DOCTYPE svg PUBLIC "-//W3C//DTD SVG 20010904//EN"
 "http://www.w3.org/TR/2001/REC-SVG-20010904/DTD/svg10.dtd">
<svg version="1.0" xmlns="http://www.w3.org/2000/svg"
 width="602.000000pt" height="602.000000pt" viewBox="0 0 602.000000 602.000000"
 preserveAspectRatio="xMidYMid meet">
<metadata>
Created by potrace 1.14, written by Peter Selinger 2001-2017
</metadata>
<g transform="translate(0.000000,602.000000) scale(0.100000,-0.100000)"
fill="#000000" stroke="none">
<path d="M2965 5344 c-265 -17 -661 -121 -860 -227 -77 -41 -280 -159 -310
-180 -114 -82 -194 -149 -290 -244 -166 -163 -218 -224 -325 -383 -80 -118
-92 -139 -131 -220 -17 -36 -43 -90 -58 -120 -54 -106 -129 -325 -156 -455 -9
-44 -20 -98 -25 -120 -30 -136 -39 -424 -21 -628 19 -203 87 -479 161 -652 19
-45 121 -253 142 -290 123 -217 351 -488 513 -610 36 -27 87 -67 111 -88 104
-86 275 -189 419 -253 55 -25 109 -49 120 -54 29 -14 151 -55 220 -75 33 -9
71 -21 85 -25 14 -5 70 -16 125 -24 55 -9 127 -21 160 -27 167 -28 536 -13
750 30 311 64 666 222 918 409 51 38 99 77 107 87 14 17 13 18 -5 13 -11 -4
-62 -25 -114 -48 -109 -48 -229 -90 -286 -100 -22 -4 -85 -17 -140 -28 -177
-36 -347 -47 -497 -33 -188 18 -384 54 -457 83 -14 6 -33 12 -41 13 -34 5
-184 69 -294 125 -310 158 -562 385 -759 681 -104 158 -140 233 -237 494 -16
42 -52 193 -72 300 -18 96 -17 505 0 605 16 86 39 191 53 235 24 80 61 192 69
210 5 11 25 58 45 105 40 93 85 172 155 268 25 35 54 79 66 98 12 19 37 52 56
72 19 20 43 49 54 63 69 92 437 379 487 379 9 0 17 4 17 10 0 11 240 130 262
130 8 0 18 4 23 8 17 15 174 59 300 86 295 61 586 54 900 -22 79 -19 203 -61
260 -86 31 -15 60 -24 63 -21 3 3 1 18 -4 33 -10 29 -132 119 -234 172 -30 16
-66 36 -80 43 -198 111 -467 196 -782 247 -68 10 -368 20 -463 14z"/>
<path d="M3585 4764 c-214 -14 -468 -83 -659 -180 -88 -44 -305 -184 -328
-211 -22 -27 2 -24 82 11 81 36 246 83 374 106 85 16 374 16 452 0 144 -28
268 -63 341 -95 129 -57 301 -157 354 -205 9 -8 27 -24 40 -34 81 -64 250
-244 261 -277 4 -12 71 -15 371 -17 338 -2 367 -1 367 14 0 18 -77 147 -92
152 -4 2 -8 9 -8 16 0 25 -213 252 -299 319 -110 85 -166 126 -174 127 -5 0
-23 10 -40 23 -54 40 -181 100 -322 153 -22 8 -91 29 -145 45 -143 40 -403 64
-575 53z"/>
<path d="M4515 2132 c-6 -4 -32 -34 -57 -68 -74 -96 -233 -240 -353 -318 -193
-127 -336 -183 -593 -235 -69 -14 -395 -14 -464 0 -158 31 -282 68 -381 113
-185 85 2 -72 226 -189 175 -91 277 -126 502 -171 107 -21 159 -26 295 -26 91
0 199 4 240 11 41 6 100 13 130 16 30 3 59 10 64 16 6 5 19 9 30 9 65 0 428
154 487 206 8 8 19 14 22 14 29 0 279 210 365 307 81 91 214 282 210 302 -3
14 -42 16 -358 18 -195 2 -360 -1 -365 -5z"/>
</g>
</svg>
