<?xml version="1.0" standalone="no"?>
<!DOCTYPE svg PUBLIC "-//W3C//DTD SVG 20010904//EN"
 "http://www.w3.org/TR/2001/REC-SVG-20010904/DTD/svg10.dtd">
<svg version="1.0" xmlns="http://www.w3.org/2000/svg"
 width="225.000000pt" height="225.000000pt" viewBox="0 0 225.000000 225.000000"
 preserveAspectRatio="xMidYMid meet">

<g transform="translate(0.000000,225.000000) scale(0.100000,-0.100000)"
fill="#ea0071" stroke="none">
<path d="M1278 1959 c-273 -29 -529 -213 -651 -470 l-42 -88 -40 -1 c-171 -1
-371 -134 -455 -302 -50 -100 -64 -169 -57 -288 5 -112 29 -184 94 -282 67
-102 161 -173 293 -220 65 -23 66 -23 575 -23 497 1 512 1 590 23 387 108 635
428 635 817 0 428 -313 781 -740 834 -92 12 -91 12 -202 0z m274 -344 c124
-42 237 -142 297 -262 123 -246 16 -561 -233 -683 -105 -52 -154 -60 -353 -60
-153 0 -165 1 -158 18 42 100 54 225 31 330 -24 114 -69 195 -159 285 l-77 79
26 47 c123 226 385 329 626 246z"/>
</g>
</svg>
