<?xml version="1.0" standalone="no"?>
<!DOCTYPE svg PUBLIC "-//W3C//DTD SVG 20010904//EN"
 "http://www.w3.org/TR/2001/REC-SVG-20010904/DTD/svg10.dtd">
<svg version="1.0" xmlns="http://www.w3.org/2000/svg"
 width="267.000000pt" height="300.000000pt" viewBox="0 0 267.000000 300.000000"
 preserveAspectRatio="xMidYMid meet">

<g transform="translate(0.000000,300.000000) scale(0.100000,-0.100000)"
fill="#000000" stroke="none">
<path d="M1363 2868 l-223 -131 32 -58 c18 -32 39 -67 48 -80 l17 -22 122 73
c68 39 124 70 126 68 1 -1 -10 -73 -26 -158 -15 -85 -28 -162 -29 -171 0 -13
20 -20 87 -32 48 -9 88 -15 90 -14 1 2 15 76 31 165 27 148 36 183 45 171 108
-137 173 -209 185 -204 21 8 131 99 129 107 -5 17 -329 407 -343 412 -39 15
-82 -3 -291 -126z"/>
<path d="M830 2570 c-80 -4 -171 -8 -202 -9 -44 -1 -63 -6 -84 -24 -25 -22
-30 -41 -71 -268 -24 -134 -42 -248 -40 -253 2 -6 32 -16 68 -23 113 -21 102
-32 129 127 13 77 26 140 29 140 3 0 53 -54 110 -120 57 -66 107 -120 112
-120 9 0 123 98 127 109 1 4 -45 62 -103 129 -58 66 -105 123 -105 125 0 2 64
7 142 11 78 3 144 8 146 11 2 2 1 42 -3 89 l-7 86 -52 -2 c-28 -1 -116 -5
-196 -8z"/>
<path d="M1971 2334 c-18 -42 -29 -79 -26 -83 3 -3 60 -28 126 -56 66 -27 120
-54 119 -60 0 -5 -60 -43 -132 -83 -72 -40 -134 -75 -137 -78 -7 -7 71 -154
82 -154 5 0 69 34 143 75 74 41 138 75 142 75 5 0 -2 -59 -15 -132 -13 -72
-22 -137 -19 -143 4 -11 163 -43 170 -34 1 2 22 114 45 249 43 250 44 280 10
306 -17 14 -451 194 -465 194 -6 0 -26 -34 -43 -76z"/>
<path d="M1436 2092 c-15 -3 -353 -196 -433 -248 l-22 -14 47 -79 46 -80 31
18 c16 10 69 41 116 70 48 28 91 51 96 51 5 0 -3 -75 -19 -166 -16 -91 -27
-169 -24 -171 8 -8 167 -35 173 -29 2 2 17 77 33 166 16 89 31 164 33 166 3 3
46 -45 97 -105 l92 -111 66 57 c37 31 67 60 67 64 0 10 -285 357 -317 385 -25
23 -53 32 -82 26z"/>
<path d="M208 1759 c-181 -160 -208 -189 -208 -229 0 -15 227 -441 245 -458 5
-5 104 45 136 69 20 15 20 16 -46 138 -37 67 -65 124 -63 127 3 2 70 -7 149
-21 79 -14 151 -25 160 -25 12 0 19 19 31 83 8 45 13 84 12 86 -2 2 -73 16
-159 31 -86 15 -158 30 -161 32 -3 3 43 47 101 99 58 51 105 95 105 98 -1 3
-27 35 -59 70 l-57 63 -186 -163z"/>
<path d="M2345 1520 c-38 -22 -70 -43 -70 -47 0 -5 29 -61 64 -126 34 -65 61
-120 58 -123 -2 -3 -75 8 -162 24 -107 20 -158 26 -160 18 -3 -6 -11 -46 -18
-88 l-14 -77 51 -10 c28 -6 94 -17 146 -26 149 -25 147 -18 26 -124 -59 -51
-106 -97 -104 -102 4 -12 102 -128 108 -128 12 -1 376 324 388 346 8 14 12 35
10 47 -6 28 -237 456 -246 456 -4 -1 -38 -19 -77 -40z"/>
<path d="M1057 1121 c-120 -71 -218 -133 -218 -137 0 -12 82 -154 88 -154 2 0
58 32 124 71 66 40 121 70 123 68 3 -2 -9 -80 -25 -173 -16 -93 -28 -169 -27
-171 2 -1 42 -8 91 -16 86 -15 88 -15 92 5 3 12 16 88 30 171 15 82 28 151 29
152 2 2 44 -47 95 -107 104 -125 92 -122 180 -42 l55 49 -163 196 c-89 108
-171 201 -181 207 -42 23 -76 9 -293 -119z"/>
<path d="M237 913 c-4 -32 -12 -147 -19 -256 l-12 -198 25 -24 c18 -17 83 -41
246 -89 123 -36 229 -66 236 -66 17 0 63 148 51 160 -5 5 -67 25 -137 46 -70
20 -124 40 -120 45 4 4 64 46 133 94 69 48 124 91 123 95 -1 5 -23 38 -49 74
l-46 66 -46 -33 c-110 -79 -211 -147 -217 -147 -4 0 -4 62 0 138 l7 139 -62 6
c-112 12 -107 14 -113 -50z"/>
<path d="M1741 606 c-35 -25 -65 -47 -68 -50 -3 -3 36 -64 86 -137 51 -72 90
-133 88 -136 -3 -2 -65 0 -138 6 -102 8 -135 7 -141 -2 -4 -7 -8 -47 -8 -89
l0 -78 28 0 c15 0 117 -7 227 -15 256 -19 240 -20 274 12 24 24 39 65 95 254
36 125 66 229 66 232 0 6 -133 47 -153 47 -15 0 -23 -22 -74 -197 -10 -35 -21
-63 -24 -63 -3 0 -45 58 -95 130 -49 71 -91 130 -95 130 -3 0 -33 -20 -68 -44z"/>
<path d="M1050 321 c-122 -64 -114 -244 14 -302 53 -24 90 -24 143 2 58 28 93
87 93 156 0 124 -138 204 -250 144z"/>
</g>
</svg>
